<svg xmlns="http://www.w3.org/2000/svg" viewBox="0 0 408.31 60.98"><defs><style>.cls-1{fill:#132e3f;}.cls-2{fill:#3cb6ce;}.cls-3{fill:#ff6d22;}.cls-4{fill:#fff;}</style></defs><g id="Layer_2" data-name="Layer 2"><g id="Layer_1-2" data-name="Layer 1"><path class="cls-1" d="M36.46,19.22q0-3.42-1.92-3.54a1.14,1.14,0,0,1-.45.06,4.2,4.2,0,0,0-.69.06h.06a11.11,11.11,0,0,1-1.74.18Q29,16,29,13.34q0-2.82,3.6-2.82H33a2.1,2.1,0,0,1,.51.06l3,.42q.84.12,1.71.18t1.83.06a28.27,28.27,0,0,0,3.12-.18l3.78-.42q.54-.06,1.29-.09t1.65,0A23.51,23.51,0,0,1,59,12.08a16,16,0,0,1,7.74,7.08,23.35,23.35,0,0,1,2.82,11.7A24.81,24.81,0,0,1,67.3,41.42a16.66,16.66,0,0,1-2.64,4,16.17,16.17,0,0,1-3.48,2.94,21.31,21.31,0,0,1-5.16,2,25.16,25.16,0,0,1-6.12.72q-.66,0-1.32,0T47.26,51l-4-.36q-2-.18-4.14-.18a20,20,0,0,0-3,.18L33.4,51a1.33,1.33,0,0,0-.42.06h-.54Q29,51.08,29,48.26a2.54,2.54,0,0,1,.81-1.95,2.77,2.77,0,0,1,1.95-.75,10.26,10.26,0,0,1,1.74.18,3.87,3.87,0,0,1,.48,0,4.39,4.39,0,0,0,.54,0q2,0,2-3.48ZM43.24,43A2.33,2.33,0,0,0,45.1,45.5a29.55,29.55,0,0,0,4.62.18,14.73,14.73,0,0,0,5.46-.93A9.79,9.79,0,0,0,59,42.2a15.51,15.51,0,0,0,2.61-5,20.61,20.61,0,0,0,.93-6.36,19.14,19.14,0,0,0-2.07-9.3,9.51,9.51,0,0,0-5.79-4.86A20.07,20.07,0,0,0,48.82,16q-4.14,0-5.1.48V16.4q-.48.3-.48,2.22Z"/><path class="cls-1" d="M101.5,33.26q0,1.38-.06,2.16a2.37,2.37,0,0,1-.36,1.2,1.28,1.28,0,0,1-.87.51,10.8,10.8,0,0,1-1.59.09H80.56q-.24,0-.24.06a9.23,9.23,0,0,0,2.34,6.54,7.33,7.33,0,0,0,9.6,1.38,5.46,5.46,0,0,0,2.34-3.06l.54-1.62a3.37,3.37,0,0,1,1-1.44,2.67,2.67,0,0,1,1.71-.54q3.12,0,3.12,3,0,4.08-4.2,7.2a14.77,14.77,0,0,1-9.06,3A13,13,0,0,1,77.5,47.48q-3.72-4.26-3.72-11.28a17.58,17.58,0,0,1,4-11.76,13.26,13.26,0,0,1,10.5-4.62,14,14,0,0,1,5.34,1,12.74,12.74,0,0,1,4.2,2.82A13.45,13.45,0,0,1,101.5,33.26ZM95,31.82a6.4,6.4,0,0,0-2-4.68,6.67,6.67,0,0,0-4.68-2,7.9,7.9,0,0,0-5.16,2.16,6.11,6.11,0,0,0-2.28,4.5Z"/><path class="cls-1" d="M114.76,13.76l-.21,2.1q-.09.9-.15,1.83t-.12,2q-.06,1.11-.06,2.73a8.18,8.18,0,0,1,3.24-2.1,13.92,13.92,0,0,1,4.2-.54,12.13,12.13,0,0,1,9.78,4.26q3.6,4.26,3.6,11.1a20.4,20.4,0,0,1-1,6.66,18.76,18.76,0,0,1-2.79,5.34,11.86,11.86,0,0,1-4.44,3.42,14.26,14.26,0,0,1-5.82,1.14,10.85,10.85,0,0,1-7.38-2.4q-.48,1.92-2.82,1.92-3,0-3-3.66v-.78a2.52,2.52,0,0,1,.06-.6V44.9q0-.66.06-1.32L108,39.2q0-1.2.06-2.85t.06-2.85L108,18.32a12.07,12.07,0,0,0-.21-2.19q-.15-.57-.51-.57a10.63,10.63,0,0,0-1.38.24,3.05,3.05,0,0,1-.6.06h-.6q-2.88,0-2.88-2.58t3.24-2.7h.69a2.68,2.68,0,0,1,.63.06l1.14.18.3,0,.3,0a2.67,2.67,0,0,0,.51.06h.39a6.37,6.37,0,0,0,.72-.06q.48-.06,1-.18a8.87,8.87,0,0,1,1.74-.18q2.22,0,2.22,2.4Zm-.06,16.62a21.67,21.67,0,0,0-.42,4.92q0,5.28.84,7.44a5.84,5.84,0,0,0,5.82,3.66,6.4,6.4,0,0,0,5.55-2.88,13.3,13.3,0,0,0,2-7.74q0-5-1.92-7.8a6.05,6.05,0,0,0-5.28-2.82,6.66,6.66,0,0,0-2.28.39,7.32,7.32,0,0,0-2,1.08,6.21,6.21,0,0,0-1.5,1.65A6.43,6.43,0,0,0,114.7,30.38Z"/><path class="cls-1" d="M148.6,13.76c-.08.8-.15,1.5-.22,2.1s-.1,1.21-.14,1.83-.09,1.3-.12,2-.06,1.65-.06,2.73a8.22,8.22,0,0,1,3.23-2.1,14,14,0,0,1,4.21-.54,12.15,12.15,0,0,1,9.78,4.26q3.6,4.26,3.59,11.1a20.4,20.4,0,0,1-1,6.66A19,19,0,0,1,165,47.18a12,12,0,0,1-4.44,3.42,14.29,14.29,0,0,1-5.82,1.14,10.83,10.83,0,0,1-7.38-2.4,2.54,2.54,0,0,1-2.82,1.92c-2,0-3-1.22-3-3.66v-.78a3.28,3.28,0,0,1,0-.6V44.9c0-.44,0-.88.07-1.32l.17-4.38c0-.8,0-1.75.07-2.85s.06-2.05.06-2.85l-.13-15.18a11.44,11.44,0,0,0-.2-2.19c-.11-.38-.27-.57-.51-.57a10.63,10.63,0,0,0-1.38.24,3.21,3.21,0,0,1-.6.06h-.6q-2.88,0-2.88-2.58t3.24-2.7h.68a2.78,2.78,0,0,1,.64.06l1.14.18.3,0,.3,0a2.67,2.67,0,0,0,.51.06h.39a6.74,6.74,0,0,0,.72-.06c.32,0,.66-.1,1-.18a9,9,0,0,1,1.74-.18c1.49,0,2.23.8,2.23,2.4Zm-.06,16.62a21.67,21.67,0,0,0-.42,4.92c0,3.52.27,6,.84,7.44a5.83,5.83,0,0,0,5.82,3.66,6.43,6.43,0,0,0,5.55-2.88,13.3,13.3,0,0,0,2-7.74q0-5-1.92-7.8a6.08,6.08,0,0,0-5.29-2.82,6.65,6.65,0,0,0-2.27.39,7.38,7.38,0,0,0-2,1.08,6.57,6.57,0,0,0-1.5,1.65A6.41,6.41,0,0,0,148.54,30.38Z"/><path class="cls-1" d="M219.46,33.26c0,.92,0,1.64-.07,2.16a2.37,2.37,0,0,1-.35,1.2,1.3,1.3,0,0,1-.87.51,11,11,0,0,1-1.6.09h-18q-.24,0-.24.06a9.18,9.18,0,0,0,2.34,6.54,7.31,7.31,0,0,0,9.59,1.38,5.38,5.38,0,0,0,2.34-3.06l.55-1.62a3.44,3.44,0,0,1,1-1.44,2.72,2.72,0,0,1,1.72-.54q3.1,0,3.11,3,0,4.08-4.19,7.2a14.8,14.8,0,0,1-9.07,3q-6.48,0-10.25-4.26T191.73,36.2a17.53,17.53,0,0,1,4-11.76,13.23,13.23,0,0,1,10.5-4.62,14,14,0,0,1,5.34,1,12.7,12.7,0,0,1,4.19,2.82A13.46,13.46,0,0,1,219.46,33.26Zm-6.54-1.44a6.4,6.4,0,0,0-2-4.68,6.68,6.68,0,0,0-4.68-2,7.88,7.88,0,0,0-5.16,2.16,6.08,6.08,0,0,0-2.29,4.5Z"/><path class="cls-1" d="M229,17.84c0-.12-.05-.18-.18-.18l-.6,0-.59,0A3.8,3.8,0,0,1,225,16.31a4.11,4.11,0,0,1-1.17-3,4.31,4.31,0,0,1,1.43-3.27,5.32,5.32,0,0,1,7.53.45,6.81,6.81,0,0,1,1.59,4.68,16.19,16.19,0,0,1-3.78,9.9q-1.56,2.1-3.06,2.1-2.16,0-2.16-1.92a3.13,3.13,0,0,1,.9-1.8h0a17.32,17.32,0,0,0,1.11-1.59c.29-.5.58-1,.86-1.59A5.4,5.4,0,0,0,229,17.84Z"/><path class="cls-1" d="M251.67,19.82a11,11,0,0,1,5.58,1.32,2.45,2.45,0,0,1,2.64-1.68q2.82,0,2.82,2.64a1,1,0,0,1,0,.24,2,2,0,0,0,0,.42q0,.24,0,.57t0,.63a10.13,10.13,0,0,0-.18,1.08,9.26,9.26,0,0,0-.06,1,10.63,10.63,0,0,0,.19,1.86c.07.44.13.83.17,1.17a8,8,0,0,1,.06.93c0,2-.94,3-2.81,3s-2.81-.86-2.89-2.58L257,28.52a3,3,0,0,0-1.65-2.37,7.06,7.06,0,0,0-3.81-1,6.1,6.1,0,0,0-3.66,1.08,3.27,3.27,0,0,0-1.5,2.76,2.75,2.75,0,0,0,1.15,2.31,7,7,0,0,0,3,1.23l1.64.24,1.65.24q10.56,1.44,10.56,8.76a9.14,9.14,0,0,1-3.54,7.32,14.08,14.08,0,0,1-8.76,2.64,14.6,14.6,0,0,1-7.2-1.8q-.3,2.28-2.88,2.28c-2,0-3-1-3-3.12.07-.6.14-1.08.2-1.44s.11-.68.15-1,.07-.57.09-.87,0-.73,0-1.29a11.87,11.87,0,0,0-.09-1.41c-.05-.5-.13-1-.21-1.41A7.18,7.18,0,0,1,239,40.1c0-1.84.93-2.76,2.81-2.76q1.92,0,2.34,1a9.35,9.35,0,0,1,.48,3.3,4.06,4.06,0,0,0,2.25,3.42,11,11,0,0,0,5.73,1.32,6.19,6.19,0,0,0,3.87-1.17,3.64,3.64,0,0,0,1.53-3q0-3.18-5.28-3.72a47.82,47.82,0,0,1-5.52-.93,13.82,13.82,0,0,1-4-1.56,6.68,6.68,0,0,1-2.46-2.55,8.16,8.16,0,0,1-.84-3.9,9,9,0,0,1,.87-4,8.82,8.82,0,0,1,2.43-3.06,11.79,11.79,0,0,1,3.72-2A15.12,15.12,0,0,1,251.67,19.82Z"/><path class="cls-2" d="M278.05,19.22q0-3.42-1.92-3.54a1.14,1.14,0,0,1-.45.06,4.2,4.2,0,0,0-.69.06h.06a11.11,11.11,0,0,1-1.74.18q-2.76,0-2.76-2.64,0-2.82,3.6-2.82h.39a2.1,2.1,0,0,1,.51.06l3,.42q.84.12,1.71.18t1.83.06a28.27,28.27,0,0,0,3.12-.18l3.78-.42q.54-.06,1.29-.09t1.65,0a23.51,23.51,0,0,1,9.18,1.56,16,16,0,0,1,7.74,7.08,23.35,23.35,0,0,1,2.82,11.7,24.81,24.81,0,0,1-2.28,10.56,16.66,16.66,0,0,1-2.64,4,16.17,16.17,0,0,1-3.48,2.94,21.31,21.31,0,0,1-5.16,2,25.16,25.16,0,0,1-6.12.72q-.66,0-1.32,0T288.85,51l-4-.36q-2-.18-4.14-.18a20,20,0,0,0-3,.18L275,51a1.33,1.33,0,0,0-.42.06H274q-3.48,0-3.48-2.82a2.54,2.54,0,0,1,.81-1.95,2.77,2.77,0,0,1,1.95-.75,10.26,10.26,0,0,1,1.74.18,3.87,3.87,0,0,1,.48,0,4.39,4.39,0,0,0,.54,0q2,0,2-3.48ZM284.83,43a2.33,2.33,0,0,0,1.86,2.52,29.55,29.55,0,0,0,4.62.18,14.73,14.73,0,0,0,5.46-.93,9.79,9.79,0,0,0,3.78-2.55,15.51,15.51,0,0,0,2.61-5,20.61,20.61,0,0,0,.93-6.36,19.14,19.14,0,0,0-2.07-9.3,9.51,9.51,0,0,0-5.79-4.86,20.07,20.07,0,0,0-5.82-.72q-4.14,0-5.1.48V16.4q-.48.3-.48,2.22Z"/><path class="cls-2" d="M329.41,51.74a13,13,0,0,1-10.26-4.38q-3.84-4.38-3.84-11.58t3.84-11.52a13.09,13.09,0,0,1,10.44-4.44,13.45,13.45,0,0,1,10.5,4.32q3.78,4.26,3.78,11.46T340,47.24A13.26,13.26,0,0,1,329.41,51.74Zm.3-26.58a6.71,6.71,0,0,0-5.61,2.58q-2,2.58-2.19,7.38v.66q0,5,2,7.8a6.42,6.42,0,0,0,5.58,2.82,6.9,6.9,0,0,0,5.79-2.79q2.13-2.79,2.13-7.89Q337.39,25.16,329.71,25.16Z"/><path class="cls-2" d="M362.59,19.82q.6,0,1.23.06a12.13,12.13,0,0,1,1.23.18,6.23,6.23,0,0,1,2.31-3.93,8.13,8.13,0,0,1,5.07-1.41,8,8,0,0,1,5.07,1.56,4.87,4.87,0,0,1,2,4,4.05,4.05,0,0,1-1.17,2.94,3.7,3.7,0,0,1-2.73,1.2,3.31,3.31,0,0,1-2.25-.87,2.67,2.67,0,0,1-1-2.07,3.12,3.12,0,0,1,.15-1,2.16,2.16,0,0,1,.75-.93,3.89,3.89,0,0,0-.51-.21,1.61,1.61,0,0,0-.51-.09q-1.92,0-2.1,2.64a11.23,11.23,0,0,1,3.21,3.57A9.21,9.21,0,0,1,374.47,30a9.1,9.1,0,0,1-3.3,7.14,11.58,11.58,0,0,1-8,2.82,16.7,16.7,0,0,1-3.45-.36,15.09,15.09,0,0,1-3.45-1.2,5.18,5.18,0,0,0-1.14-.3.93.93,0,0,0-.75.45,1.83,1.83,0,0,0-.33,1.11q0,2.16,5,2.16h.75a2.67,2.67,0,0,0,.51-.06h.78a31.7,31.7,0,0,1,9.06,1.08,12,12,0,0,1,5.43,3.3,7.38,7.38,0,0,1,2,5.1,8,8,0,0,1-1,4.08,9,9,0,0,1-3,3.06,15.44,15.44,0,0,1-4.8,1.92,27.7,27.7,0,0,1-6.3.66q-7,0-11-2.46a7.66,7.66,0,0,1-4-6.84q0-4.26,4.2-6.54-3.6-1.92-3.6-5.46a5.5,5.5,0,0,1,1.14-3.42,8,8,0,0,1,3.06-2.4,6,6,0,0,1-.87-2,11,11,0,0,1-.21-2.22,9.16,9.16,0,0,1,3.3-7.08A12.22,12.22,0,0,1,362.59,19.82Zm.24,27.36a14.72,14.72,0,0,0-6.48,1.17Q354,49.52,354,51.44a3.41,3.41,0,0,0,2.28,3.09,14.29,14.29,0,0,0,6.18,1.11A15.27,15.27,0,0,0,369,54.5q2.37-1.14,2.37-3.06a3.47,3.47,0,0,0-2.25-3.12A14.1,14.1,0,0,0,362.83,47.18Zm-.06-22a5.41,5.41,0,0,0-3.6,1.26,4.36,4.36,0,0,0-1.62,3.18v.24A4.47,4.47,0,0,0,359,33.35a5.36,5.36,0,0,0,3.72,1.29,5.86,5.86,0,0,0,4-1.29,4.25,4.25,0,0,0,1.5-3.39,4.36,4.36,0,0,0-1.56-3.45A5.66,5.66,0,0,0,362.77,25.16Z"/><path class="cls-2" d="M399.49,26.18h-6.66q-2,0-3.3.09a16.37,16.37,0,0,0-1.86.21.47.47,0,0,0-.3.48,2.19,2.19,0,0,0,0,.36l.09.54a14.08,14.08,0,0,1,.18,1.47q.06.81.06,1.47,0,2.94-2.82,2.94T382,30.44a12.89,12.89,0,0,1,.06-1.68v.06q.18-1.68.18-2.28,0-.18,0-.6a5.28,5.28,0,0,0-.15-.9,4.49,4.49,0,0,1-.15-1q0-.57,0-.87,0-2.58,3.78-2.58h1.11q.63,0,1.41.06l.63,0,.57,0a5.21,5.21,0,0,0,.72.06h.48l3.42.06h9.66q4.62,0,4.62,3.42a3.41,3.41,0,0,1-.69,1.71,16,16,0,0,1-1.77,2.19l-17.1,17.22h11.58q2.34,0,2.34-1.14V43.16q0-.36,0-.78t0-.72a3.44,3.44,0,0,0,0-.6l-.06-.24a1.6,1.6,0,0,1,0-.36v-1a3.17,3.17,0,0,1,.81-2.25,2.77,2.77,0,0,1,2.13-.87q2.76,0,2.76,3,0,.54,0,1t-.09,1q-.18,2-.18,2.82,0,.3,0,.78t0,1q0,.3,0,.66t.06.66q0,.3.06.51t0,.15q0,3-3.48,2.88-.84,0-1.71-.06t-1.71-.06H384.85a4.29,4.29,0,0,1-3-1.08,3.52,3.52,0,0,1-1.17-2.7,4.82,4.82,0,0,1,1.62-3.42Z"/><path class="cls-3" d="M61,6a1.29,1.29,0,0,0-.09-1.43A2.65,2.65,0,0,0,61,3c-.2-.76-.51-.89-1.1-.59a62.49,62.49,0,0,1-6.57,3,5.87,5.87,0,0,1-3.54-.42c-.43-.17-1,.42-4.39,2.52a7,7,0,0,0-2.61,4.77,3.38,3.38,0,0,0,.31,1.82s-.39.92-.52,1.34.25.88.5,2.57.38,1.73,1.52,2.53a4.36,4.36,0,0,0,1.15.5,14.65,14.65,0,0,1,.5,3.08c0,1.43-1.27,1.43-2.36,1.69s-4,2.36-4.81,2.86-3.79.68-6.66,1.18S21.27,34.8,18.75,36.23,16,38.85,14.36,39.94s-1.18,1.1-5,5.23S3,48.37,2.14,48.12.2,47.36,0,47.78s.17,1.77,4.3,1.77,6.66-3.79,7.42-4.47,3.2-3.37,2.87-1.77a6.8,6.8,0,0,0,.84,4.21c.42.76,1.94.85,1.35,1.35a1.18,1.18,0,0,0,.92,1.94c1.18,0,13.58-.08,14.84,0a8.78,8.78,0,0,0,2.53-.25c.5.08,1.6-1,1.6-1,.51.08.76-.51.76-.51-1.43-1.68-5.14-1-6-1s-2.14-1.34-2.14-1.34c3.08-2.28,7.2-1.86,8.8-1.61S47,45,47,45a10.27,10.27,0,0,0-.59,2.36c-.34,1.86-.17,3,.59,3.31s6.51,0,6.51,0c-.08-.42,0-.66-.81-1.42a6.23,6.23,0,0,0-2.14-1.13c-.84-.84,0-3.88,0-3.88s2.45-.5,6.24-4.55S60,31.51,59.54,30.5a55.62,55.62,0,0,1-1.32-6.4c-.14-.93-2.72-7.76-2.64-9.28s3.54-4.63,4.55-5.48a1.64,1.64,0,0,0,.68-1.77A1.25,1.25,0,0,0,61,6Z"/><path class="cls-4" d="M45.94,10.54l1.49,1.75,3,3.49c.73.87,1.47,1.73,2.19,2.61l.1.13h0l0,.06c0,.07,0,0,0,.08l.05.17a2.5,2.5,0,0,1,.06.38,2.78,2.78,0,0,1-.41,2,1.41,1.41,0,0,1-.94.53,9.16,9.16,0,0,1-1.48.06,18,18,0,0,1-3.51-.45c-.25-.06-.49-.12-.74-.2a.23.23,0,0,0-.12.44,16.22,16.22,0,0,0,3.52.61,12.21,12.21,0,0,0,1.71,0,3,3,0,0,0,1.35-.27A2.37,2.37,0,0,0,53.33,20a4.11,4.11,0,0,0,0-1,1.68,1.68,0,0,0-.21-.63c-.19-.27-.42-.51-.62-.76l-1.21-1.44-3.07-3.63L46.93,11c-.21-.25-.42-.52-.64-.76l0,0c-.19-.23-.51.1-.32.32Z"/><path class="cls-1" d="M187,45.62a3.37,3.37,0,0,0-.7.06,3.72,3.72,0,0,0-.44.12l.06-.06-.9.18-.31.06c-.24,0-.42-.6-.53-1.8a5.74,5.74,0,0,1-.06-1.11V31.13c0-.78,0-1.57.06-2.37q0-.48,0-.93c0-.3,0-.59,0-.87a14.2,14.2,0,0,1,0-1.68v-.21a1.34,1.34,0,0,1,.07-.39V23.9a3.82,3.82,0,0,1-3.13-1,12.76,12.76,0,0,0-2.64-1.69,3.25,3.25,0,0,0-.43-.18c-.37,0-.82-.09-1.37-.17a2,2,0,0,0-.59-.06h-1.08q-3.5,0-3.49,2.7c0,1.76,1,2.64,3.07,2.64l.63,0A2.41,2.41,0,0,0,176,26c.27-.08.52-.14.72-.18a2.4,2.4,0,0,1,.42-.06c.36,0,.6.94.71,2.82V43q-.17,2.88-.66,2.88h-.35a2.5,2.5,0,0,1-.66-.12l-.93-.12-.69-.06c-2,0-3,.88-3,2.64S172.71,51,174.87,51a10.73,10.73,0,0,0,1.24-.09l1.83-.21q.9-.12,1.71-.18t1.47-.06a8.46,8.46,0,0,1,1.08.09l1.56.21c.63.08,1.2.14,1.68.18s.87.06,1.19.06a3.9,3.9,0,0,0,2.49-.78,2.4,2.4,0,0,0,1-2C190.12,46.5,189.07,45.62,187,45.62Z"/><path class="cls-3" d="M172.41,5a2.22,2.22,0,0,0-.51.06l-.11,0a2.6,2.6,0,0,0-1.36,1.06,3,3,0,0,0-.4,1.5,2.69,2.69,0,0,0,.52,1.69,1.87,1.87,0,0,0,1.56.76,2.57,2.57,0,0,0,1.07-.36,2.76,2.76,0,0,0,1.28-1.22,2.49,2.49,0,0,0,0-1.78,3,3,0,0,0-.85-1.34A1.81,1.81,0,0,0,172.41,5Z"/><path class="cls-3" d="M190.24,8.51a2.07,2.07,0,0,0-.77-.3,3.32,3.32,0,0,0-1.5.1,3.45,3.45,0,0,0-1.86,1.24,2.48,2.48,0,0,0-.42,2.15,1.87,1.87,0,0,0,1.5,1.34,5.53,5.53,0,0,0,2.2-.36,3,3,0,0,0,1.61-1,2.07,2.07,0,0,0,.37-1.1A2.32,2.32,0,0,0,190.24,8.51Z"/><path class="cls-3" d="M178.26.31A2.53,2.53,0,0,0,177,0c-1.68,0-2.35,2.09-2.3,3.48a4.4,4.4,0,0,0,.53,2,2.64,2.64,0,0,0,1.24,1.14,2.45,2.45,0,0,0,2.28-.31,3.06,3.06,0,0,0,1.2-2A4.19,4.19,0,0,0,179.62,2a3.64,3.64,0,0,0-.91-1.32A2.83,2.83,0,0,0,178.26.31Z"/><path class="cls-3" d="M186.52,2a2.53,2.53,0,0,0-1.27-.8,3.21,3.21,0,0,0-2.73,1.28A3.82,3.82,0,0,0,181.85,4a4.21,4.21,0,0,0,0,1.8,2.3,2.3,0,0,0,1,1.48,2.27,2.27,0,0,0,1.4.31,3.55,3.55,0,0,0,1.37-.47,3.78,3.78,0,0,0,1.87-2.38,2.77,2.77,0,0,0-.36-2.1A4.55,4.55,0,0,0,186.52,2Z"/><path class="cls-3" d="M184.55,17.78a5.53,5.53,0,0,0,.31-2.92,12.69,12.69,0,0,0-.44-3.17,5.08,5.08,0,0,0-4.28-4,4.74,4.74,0,0,0-1.55.12,6.67,6.67,0,0,0-3,2.08A11.92,11.92,0,0,0,173,13.33a3.22,3.22,0,0,0-.25.92,2.28,2.28,0,0,0,.09,1,2.57,2.57,0,0,0,.53.86c.64.67,1.46.52,2.29.41a5.57,5.57,0,0,1,2.89.34,9.33,9.33,0,0,1,2,1.31,2.84,2.84,0,0,0,2.77.64,2,2,0,0,0,.75-.44A2.17,2.17,0,0,0,184.55,17.78Z"/><path class="cls-1" d="M36.46,22.82v19.5q0,3.48-2,3.48a4.39,4.39,0,0,1-.54,0,3.87,3.87,0,0,0-.48,0,10.26,10.26,0,0,0-1.74-.18,2.77,2.77,0,0,0-1.95.75A2.54,2.54,0,0,0,29,48.26q0,2.82,3.48,2.82H33A1.33,1.33,0,0,1,33.4,51l2.76-.42a20,20,0,0,1,3-.18c1.42,0,2.77.06,4.08.17V22.82Z"/></g></g></svg>